<svg xmlns="http://www.w3.org/2000/svg" version="1.1" xmlns:xlink="http://www.w3.org/1999/xlink" xmlns:svgjs="http://svgjs.dev/svgjs" width="1440" height="560" preserveAspectRatio="none" viewBox="0 0 1440 560"><g mask="url(&quot;#SvgjsMask1025&quot;)" fill="none"><path d="M769.35 175.38 a146.42 146.42 0 1 0 292.84 0 a146.42 146.42 0 1 0 -292.84 0z" fill="rgba(56, 147, 195, 0.74)" class="triangle-float3"></path><path d="M145.74 488.8 a180.5 180.5 0 1 0 361 0 a180.5 180.5 0 1 0 -361 0z" fill="rgba(56, 147, 195, 0.74)" class="triangle-float2"></path><path d="M58.04 168.38 a133.35 133.35 0 1 0 266.7 0 a133.35 133.35 0 1 0 -266.7 0z" fill="rgba(56, 147, 195, 0.74)" class="triangle-float2"></path><path d="M129.88 383.91 a144.77 144.77 0 1 0 289.54 0 a144.77 144.77 0 1 0 -289.54 0z" fill="rgba(56, 147, 195, 0.74)" class="triangle-float3"></path><path d="M232.74 127.36 a103.58 103.58 0 1 0 207.16 0 a103.58 103.58 0 1 0 -207.16 0z" fill="rgba(56, 147, 195, 0.74)" class="triangle-float2"></path><path d="M124.8 128.34 a109.22 109.22 0 1 0 218.44 0 a109.22 109.22 0 1 0 -218.44 0z" fill="rgba(56, 147, 195, 0.74)" class="triangle-float1"></path><path d="M203.43 510.5 a119.22 119.22 0 1 0 238.44 0 a119.22 119.22 0 1 0 -238.44 0z" fill="rgba(56, 147, 195, 0.74)" class="triangle-float2"></path><path d="M768.02 528.48 a123.31 123.31 0 1 0 246.62 0 a123.31 123.31 0 1 0 -246.62 0z" fill="rgba(56, 147, 195, 0.74)" class="triangle-float2"></path></g><defs><mask id="SvgjsMask1025"><rect width="1440" height="560" fill="#ffffff"></rect></mask><style>
                @keyframes float1 {
                    0%{transform: translate(0, 0)}
                    50%{transform: translate(-10px, 0)}
                    100%{transform: translate(0, 0)}
                }

                .triangle-float1 {
                    animation: float1 5s infinite;
                }

                @keyframes float2 {
                    0%{transform: translate(0, 0)}
                    50%{transform: translate(-5px, -5px)}
                    100%{transform: translate(0, 0)}
                }

                .triangle-float2 {
                    animation: float2 4s infinite;
                }

                @keyframes float3 {
                    0%{transform: translate(0, 0)}
                    50%{transform: translate(0, -10px)}
                    100%{transform: translate(0, 0)}
                }

                .triangle-float3 {
                    animation: float3 6s infinite;
                }
            </style></defs></svg>